<svg xmlns="http://www.w3.org/2000/svg"  viewBox="0 0 512 512" width="256px" height="256px"><path d="M148.94,473.32H50.86a22,22,0,0,0-22,22v4H170.94v-4A22,22,0,0,0,148.94,473.32Z" style="fill:#d3a13d"/><polygon points="113.41 301.48 86.39 301.48 85.9 301.48 85.9 448.76 113.9 448.76 113.9 301.48 113.41 301.48" style="fill:#a07d6d"/><polygon points="85.9 43.76 85.9 301.48 86.39 301.48 113.41 301.48 113.9 301.48 113.9 43.76 85.9 43.76" style="fill:#c79a83"/><path d="M119.91,447.31H79.89a22.013,22.013,0,0,0-22.02,22.01v4h84.05v-4A22,22,0,0,0,119.91,447.31Z" style="fill:#edb740"/><path d="M99.9,13.33a27.748,27.748,0,0,0-28,27.5v4.5h56v-4.5A27.755,27.755,0,0,0,99.9,13.33Z" style="fill:#edb740"/><path d="M482.93,60.25v225.5a4.005,4.005,0,0,1-4,4h-372a4,4,0,0,1-4-4V60.25a4,4,0,0,1,4-4h372A4.005,4.005,0,0,1,482.93,60.25Z" style="fill:#f41f1e"/><polygon points="342.99 158.79 312.05 181.24 323.88 217.61 292.94 195.16 262 217.61 273.8 181.24 242.87 158.79 281.05 158.79 292.94 122.39 304.71 158.79 342.99 158.79" style="fill:#ffff04"/><path d="M133.02,286.07V60.58a4,4,0,0,1,4-4h-30a4,4,0,0,0-4,4V286.07a4,4,0,0,0,4,4h30A4,4,0,0,1,133.02,286.07Z" style="fill:#ce2020"/></svg>